<svg width="100" height="100" viewBox="0 0 100 100" fill="none" xmlns="http://www.w3.org/2000/svg" role="img">
<title>ebtEdge Logo</title>
<g clip-path="url(#clip0_12379_39535)">
<rect width="100" height="100" fill="#002923"/>
<rect x="8.33676" y="8.33398" width="83.3333" height="56.6667" rx="11.6667" fill="#F7AF52"/>
<rect x="8.33676" y="16.666" width="83.3333" height="56.6667" rx="11.6667" fill="#14AC2A"/>
<path d="M0 26.668H20.1854C23.3659 26.668 26.5172 27.2748 29.4702 28.4561L40.7152 32.9541C46.6755 35.3382 53.3245 35.3382 59.2848 32.9541L70.5298 28.4561C73.4828 27.2748 76.6341 26.668 79.8146 26.668H100V100.001H0V26.668Z" fill="#004C41"/>
<path d="M30.2135 68.7092V65.5352H17.0941V82.9855H30.2135V79.8356H20.5816V75.6473H28.0351L28.6404 72.6043H20.5816V68.7127H30.2135V68.7092Z" fill="white"/>
<path d="M38.7498 65.5352H32.4365V82.9855H38.7498C44.9822 82.9855 48.2479 79.4906 48.2479 74.2604C48.2479 69.0301 44.9822 65.5352 38.7498 65.5352ZM38.7498 79.8356H35.9204V68.7092H38.7498C42.8601 68.7092 44.7112 70.8689 44.7112 74.2569C44.7112 77.6449 42.8601 79.8356 38.7498 79.8356Z" fill="white"/>
<path d="M58.545 73.5105L57.9397 76.5535H64.7211C63.8483 78.9271 61.8073 80.1795 59.0307 80.1795C55.4939 80.1795 53.0974 77.6713 53.0974 74.2557C53.0974 70.8402 55.4939 68.3596 59.0307 68.3596C61.3181 68.3596 63.1656 69.3981 64.1193 71.0817H67.9833C66.734 67.535 63.3838 65.1855 59.0307 65.1855C53.4775 65.1855 49.5572 69.0289 49.5572 74.2592C49.5572 79.4895 53.4775 83.3328 59.0307 83.3328C64.2566 83.3328 68.0678 79.9173 68.4725 75.1424V73.514H58.5415L58.545 73.5105Z" fill="white"/>
<path d="M83.3282 68.7092V65.5352H70.2089V82.9855H83.3282V79.8356H73.6928V75.6473L81.1463 75.6404L81.7516 72.6009H73.6928V68.7092H83.3282Z" fill="white"/>
<path d="M39.4899 48.1779C37.6353 48.1779 36.0939 48.9472 35.1789 50.3549V43.334H32.0715V54.733C32.0715 58.8316 34.8904 61.4951 38.9409 61.4951C42.9914 61.4951 45.9123 58.7316 45.9123 54.7088C45.9123 50.379 42.6219 48.1779 39.4863 48.1779H39.4899ZM38.9655 58.6522C36.6957 58.6522 35.1789 57.0652 35.1789 54.8365C35.1789 52.6077 36.6957 51.0207 38.9655 51.0207C41.2353 51.0207 42.7802 52.6077 42.7802 54.8365C42.7802 57.0652 41.2389 58.6522 38.9655 58.6522Z" fill="#14AC2A"/>
<path d="M55.9429 57.9622C55.5628 58.4487 54.9646 58.6522 54.2396 58.6522C52.9622 58.6522 52.0719 57.9864 52.0719 56.2959V50.5481H55.9394L56.4954 47.7846H52.0683V43.334H48.9609V56.2924C48.9609 59.8011 51.1041 61.4916 54.2361 61.4916C56.1048 61.4916 57.618 60.8913 58.5365 59.6666L55.9394 57.9588L55.9429 57.9622Z" fill="#14AC2A"/>
<path d="M24.9713 58.4373C23.2681 59.0515 21.6669 58.6029 20.6287 57.0263L30.3626 53.5003C29.1732 48.8358 25.0593 47.2385 21.2586 48.6116C17.4615 49.9882 15.7723 53.5831 17.1237 57.1574C18.475 60.7316 22.1455 62.3842 25.9426 61.0111C28.3708 60.1279 29.9227 58.3683 30.3591 56.2811H27.3995C27.0758 57.2643 26.2628 57.9681 24.9678 58.4373H24.9713ZM22.2299 51.1888C23.817 50.6126 25.4323 50.9231 26.4881 52.3307L19.7665 54.7665C19.6398 53.0484 20.6006 51.7787 22.2299 51.1888Z" fill="#14AC2A"/>
<path d="M46.5761 50.5462L47.1321 47.7793H49.6447V50.5462H46.5761Z" fill="#14AC2A"/>
</g>
<defs>
<clipPath id="clip0_12379_39535">
<rect width="100" height="100" rx="22.3684" fill="white"/>
</clipPath>
</defs>
</svg>
